<svg 
	xmlns="http://www.w3.org/2000/svg" width="100" height="100" viewBox="0 0 100 100">
	<g fill="none" fill-rule="evenodd">
		<rect width="93" height="93" x="3.5" y="3.5" stroke="#DA513D" stroke-width="7" rx="24"/>
		<path fill="#DA513D" d="M69.6137481,31.5842323 C69.9633605,31.845732 70.2929949,32.122222 70.6159701,32.4037088 L75.8368476,28.3396384 L76,28.1297725 C75.1930275,27.3171965 74.328397,26.5640469 73.4128688,25.8762121 C61.4311548,16.9069419 43.3245659,20.6612102 32.9710465,34.2625214 C22.6241864,47.862167 23.9477188,66.1538152 35.9277679,75.1264166 C45.7119186,82.4484058 59.5748799,81.2858152 69.9683549,73.2109736 L69.9600308,73.1909863 L64.9888765,69.3267882 C57.2857515,74.2369848 47.731346,74.5900926 40.8190109,69.4167307 C31.6125529,62.5277982 30.5970123,48.4734431 38.5498604,38.0267834 C46.4993788,27.578458 60.408955,24.6952998 69.6120833,31.5842323 L69.6137481,31.5842323 Z"/>
		<circle cx="80.5" cy="18.5" r="4.5" fill="#DA513D"/>
	</g>
</svg>
